<?xml version="1.0" standalone="no"?>
<!DOCTYPE svg PUBLIC "-//W3C//DTD SVG 20010904//EN"
 "http://www.w3.org/TR/2001/REC-SVG-20010904/DTD/svg10.dtd">
<svg version="1.0" xmlns="http://www.w3.org/2000/svg"
 width="249.000000pt" height="249.000000pt" viewBox="0 0 249.000000 249.000000"
 preserveAspectRatio="xMidYMid meet">

<g transform="translate(0.000000,249.000000) scale(0.100000,-0.100000)"
fill="#000000" stroke="none">
<path d="M580 2480 c-142 -5 -186 -10 -233 -28 -115 -42 -189 -103 -251 -205
-66 -111 -66 -106 -67 -999 -1 -880 -1 -882 59 -992 62 -116 194 -211 326
-235 40 -7 329 -11 865 -11 667 0 815 3 860 15 164 43 280 158 331 326 19 64
20 96 20 889 0 913 2 885 -67 1007 -57 103 -151 175 -283 219 -51 17 -107 18
-720 20 -366 0 -744 -2 -840 -6z m168 -707 c17 -24 63 -103 184 -313 78 -135
100 -171 105 -166 3 2 6 116 7 253 l1 248 240 -2 c132 -2 246 -5 253 -8 9 -3
12 -121 12 -544 0 -466 -2 -540 -15 -545 -30 -11 -480 -19 -501 -8 -10 5 -29
27 -40 49 -41 76 -77 138 -84 148 -4 6 -17 26 -28 45 -11 19 -36 63 -56 98
-20 34 -52 90 -72 125 -20 34 -48 82 -62 107 -14 25 -33 57 -43 72 -11 14 -19
29 -19 32 0 4 -11 25 -26 47 -14 22 -33 55 -43 72 -10 18 -35 61 -56 97 -97
168 -108 194 -88 213 3 4 75 7 159 7 l153 0 19 -27z m1199 0 c65 -20 117 -62
145 -116 19 -36 22 -58 22 -147 -1 -90 -4 -110 -23 -141 -23 -38 -76 -80 -124
-98 -35 -14 -29 -24 25 -42 55 -18 110 -73 126 -127 17 -59 15 -174 -5 -235
-22 -68 -83 -129 -153 -152 -39 -13 -88 -18 -189 -19 l-136 -1 0 115 0 115 65
6 c101 9 110 17 110 105 0 67 -24 88 -107 94 l-68 5 0 115 0 115 68 5 c82 6
97 20 97 92 0 65 -23 88 -89 88 -83 0 -81 -3 -81 126 l0 114 132 0 c95 0 146
-5 185 -17z m-1501 -206 c23 -35 197 -336 246 -424 l28 -51 0 -201 c0 -237 20
-213 -175 -209 l-130 3 -3 458 c-1 251 1 457 5 457 5 0 18 -15 29 -33z"/>
</g>
</svg>
